<mxfile host="Electron" modified="2025-03-27T19:53:55.516Z" agent="Mozilla/5.0 (X11; Linux x86_64) AppleWebKit/537.36 (KHTML, like Gecko) draw.io/21.2.8 Chrome/112.0.5615.165 Electron/24.2.0 Safari/537.36" etag="GKDIcrJPw10Qgx1oMzsp" version="21.2.8" type="device">
  <diagram name="Página-1" id="iFWxAaB9A3a9G5m1DopU">
    <mxGraphModel dx="2195" dy="838" grid="1" gridSize="10" guides="1" tooltips="1" connect="1" arrows="1" fold="1" page="1" pageScale="1" pageWidth="827" pageHeight="1169" math="0" shadow="0">
      <root>
        <mxCell id="0" />
        <mxCell id="1" parent="0" />
        <mxCell id="DJ1SZZ3aCuItbE3y70CO-1" value="Cliente" style="whiteSpace=wrap;html=1;align=center;" vertex="1" parent="1">
          <mxGeometry x="50" y="230" width="100" height="40" as="geometry" />
        </mxCell>
        <mxCell id="DJ1SZZ3aCuItbE3y70CO-2" value="nombre" style="ellipse;whiteSpace=wrap;html=1;align=center;" vertex="1" parent="1">
          <mxGeometry x="-110" y="180" width="100" height="40" as="geometry" />
        </mxCell>
        <mxCell id="DJ1SZZ3aCuItbE3y70CO-3" value="contraseña" style="ellipse;whiteSpace=wrap;html=1;align=center;" vertex="1" parent="1">
          <mxGeometry x="50" y="120" width="100" height="40" as="geometry" />
        </mxCell>
        <mxCell id="DJ1SZZ3aCuItbE3y70CO-4" value="imagen" style="ellipse;whiteSpace=wrap;html=1;align=center;" vertex="1" parent="1">
          <mxGeometry x="-40" y="330" width="100" height="40" as="geometry" />
        </mxCell>
        <mxCell id="DJ1SZZ3aCuItbE3y70CO-5" value="descripcion" style="ellipse;whiteSpace=wrap;html=1;align=center;" vertex="1" parent="1">
          <mxGeometry x="140" y="340" width="100" height="40" as="geometry" />
        </mxCell>
        <mxCell id="DJ1SZZ3aCuItbE3y70CO-6" value="hobbies" style="ellipse;whiteSpace=wrap;html=1;align=center;" vertex="1" parent="1">
          <mxGeometry x="220" y="240" width="100" height="40" as="geometry" />
        </mxCell>
        <mxCell id="DJ1SZZ3aCuItbE3y70CO-7" value="gustos" style="ellipse;whiteSpace=wrap;html=1;align=center;" vertex="1" parent="1">
          <mxGeometry x="230" y="160" width="100" height="40" as="geometry" />
        </mxCell>
        <mxCell id="DJ1SZZ3aCuItbE3y70CO-8" value="correo" style="ellipse;whiteSpace=wrap;html=1;align=center;fontStyle=4;" vertex="1" parent="1">
          <mxGeometry x="-140" y="270" width="100" height="40" as="geometry" />
        </mxCell>
        <mxCell id="DJ1SZZ3aCuItbE3y70CO-9" value="" style="endArrow=none;html=1;rounded=0;" edge="1" parent="1" source="DJ1SZZ3aCuItbE3y70CO-8" target="DJ1SZZ3aCuItbE3y70CO-1">
          <mxGeometry relative="1" as="geometry">
            <mxPoint x="-20" y="260" as="sourcePoint" />
            <mxPoint x="140" y="260" as="targetPoint" />
          </mxGeometry>
        </mxCell>
        <mxCell id="DJ1SZZ3aCuItbE3y70CO-10" value="" style="endArrow=none;html=1;rounded=0;" edge="1" parent="1" source="DJ1SZZ3aCuItbE3y70CO-4" target="DJ1SZZ3aCuItbE3y70CO-1">
          <mxGeometry relative="1" as="geometry">
            <mxPoint x="-36" y="291" as="sourcePoint" />
            <mxPoint x="60" y="271" as="targetPoint" />
          </mxGeometry>
        </mxCell>
        <mxCell id="DJ1SZZ3aCuItbE3y70CO-11" value="" style="endArrow=none;html=1;rounded=0;" edge="1" parent="1" source="DJ1SZZ3aCuItbE3y70CO-5" target="DJ1SZZ3aCuItbE3y70CO-1">
          <mxGeometry relative="1" as="geometry">
            <mxPoint x="37" y="341" as="sourcePoint" />
            <mxPoint x="92" y="280" as="targetPoint" />
          </mxGeometry>
        </mxCell>
        <mxCell id="DJ1SZZ3aCuItbE3y70CO-12" value="" style="endArrow=none;html=1;rounded=0;" edge="1" parent="1" source="DJ1SZZ3aCuItbE3y70CO-6" target="DJ1SZZ3aCuItbE3y70CO-1">
          <mxGeometry relative="1" as="geometry">
            <mxPoint x="185" y="351" as="sourcePoint" />
            <mxPoint x="126" y="280" as="targetPoint" />
          </mxGeometry>
        </mxCell>
        <mxCell id="DJ1SZZ3aCuItbE3y70CO-13" value="" style="endArrow=none;html=1;rounded=0;" edge="1" parent="1" source="DJ1SZZ3aCuItbE3y70CO-7" target="DJ1SZZ3aCuItbE3y70CO-1">
          <mxGeometry relative="1" as="geometry">
            <mxPoint x="231" y="267" as="sourcePoint" />
            <mxPoint x="160" y="263" as="targetPoint" />
          </mxGeometry>
        </mxCell>
        <mxCell id="DJ1SZZ3aCuItbE3y70CO-14" value="" style="endArrow=none;html=1;rounded=0;" edge="1" parent="1" source="DJ1SZZ3aCuItbE3y70CO-3" target="DJ1SZZ3aCuItbE3y70CO-1">
          <mxGeometry relative="1" as="geometry">
            <mxPoint x="254" y="204" as="sourcePoint" />
            <mxPoint x="160" y="241" as="targetPoint" />
          </mxGeometry>
        </mxCell>
        <mxCell id="DJ1SZZ3aCuItbE3y70CO-15" value="" style="endArrow=none;html=1;rounded=0;" edge="1" parent="1" source="DJ1SZZ3aCuItbE3y70CO-2" target="DJ1SZZ3aCuItbE3y70CO-1">
          <mxGeometry relative="1" as="geometry">
            <mxPoint x="110" y="170" as="sourcePoint" />
            <mxPoint x="110" y="240" as="targetPoint" />
          </mxGeometry>
        </mxCell>
        <mxCell id="DJ1SZZ3aCuItbE3y70CO-16" value="Cita" style="whiteSpace=wrap;html=1;align=center;" vertex="1" parent="1">
          <mxGeometry x="60" y="660" width="100" height="40" as="geometry" />
        </mxCell>
        <mxCell id="DJ1SZZ3aCuItbE3y70CO-17" value="fecha" style="ellipse;whiteSpace=wrap;html=1;align=center;" vertex="1" parent="1">
          <mxGeometry x="-150" y="665" width="100" height="40" as="geometry" />
        </mxCell>
        <mxCell id="DJ1SZZ3aCuItbE3y70CO-18" value="hora" style="ellipse;whiteSpace=wrap;html=1;align=center;" vertex="1" parent="1">
          <mxGeometry x="-40" y="770" width="100" height="40" as="geometry" />
        </mxCell>
        <mxCell id="DJ1SZZ3aCuItbE3y70CO-19" value="precio" style="ellipse;whiteSpace=wrap;html=1;align=center;" vertex="1" parent="1">
          <mxGeometry x="-50" y="570" width="100" height="40" as="geometry" />
        </mxCell>
        <mxCell id="DJ1SZZ3aCuItbE3y70CO-20" value="idCita" style="ellipse;whiteSpace=wrap;html=1;align=center;fontStyle=4;" vertex="1" parent="1">
          <mxGeometry x="170" y="580" width="100" height="40" as="geometry" />
        </mxCell>
        <mxCell id="DJ1SZZ3aCuItbE3y70CO-21" value="estado" style="ellipse;whiteSpace=wrap;html=1;align=center;" vertex="1" parent="1">
          <mxGeometry x="170" y="770" width="100" height="40" as="geometry" />
        </mxCell>
        <mxCell id="DJ1SZZ3aCuItbE3y70CO-22" value="" style="endArrow=none;html=1;rounded=0;" edge="1" parent="1" source="DJ1SZZ3aCuItbE3y70CO-17" target="DJ1SZZ3aCuItbE3y70CO-16">
          <mxGeometry relative="1" as="geometry">
            <mxPoint x="-150" y="600" as="sourcePoint" />
            <mxPoint x="10" y="600" as="targetPoint" />
          </mxGeometry>
        </mxCell>
        <mxCell id="DJ1SZZ3aCuItbE3y70CO-23" value="" style="endArrow=none;html=1;rounded=0;" edge="1" parent="1" source="DJ1SZZ3aCuItbE3y70CO-18" target="DJ1SZZ3aCuItbE3y70CO-16">
          <mxGeometry relative="1" as="geometry">
            <mxPoint x="-40" y="694" as="sourcePoint" />
            <mxPoint x="70" y="691" as="targetPoint" />
          </mxGeometry>
        </mxCell>
        <mxCell id="DJ1SZZ3aCuItbE3y70CO-24" value="" style="endArrow=none;html=1;rounded=0;" edge="1" parent="1" source="DJ1SZZ3aCuItbE3y70CO-21" target="DJ1SZZ3aCuItbE3y70CO-16">
          <mxGeometry relative="1" as="geometry">
            <mxPoint x="37" y="781" as="sourcePoint" />
            <mxPoint x="102" y="710" as="targetPoint" />
          </mxGeometry>
        </mxCell>
        <mxCell id="DJ1SZZ3aCuItbE3y70CO-25" value="" style="endArrow=none;html=1;rounded=0;" edge="1" parent="1" source="DJ1SZZ3aCuItbE3y70CO-16" target="DJ1SZZ3aCuItbE3y70CO-20">
          <mxGeometry relative="1" as="geometry">
            <mxPoint x="211" y="781" as="sourcePoint" />
            <mxPoint x="140" y="710" as="targetPoint" />
          </mxGeometry>
        </mxCell>
        <mxCell id="DJ1SZZ3aCuItbE3y70CO-26" value="" style="endArrow=none;html=1;rounded=0;" edge="1" parent="1" source="DJ1SZZ3aCuItbE3y70CO-16" target="DJ1SZZ3aCuItbE3y70CO-19">
          <mxGeometry relative="1" as="geometry">
            <mxPoint x="148" y="670" as="sourcePoint" />
            <mxPoint x="206" y="628" as="targetPoint" />
          </mxGeometry>
        </mxCell>
        <mxCell id="DJ1SZZ3aCuItbE3y70CO-27" value="agenda" style="shape=rhombus;perimeter=rhombusPerimeter;whiteSpace=wrap;html=1;align=center;" vertex="1" parent="1">
          <mxGeometry x="50" y="440" width="120" height="60" as="geometry" />
        </mxCell>
        <mxCell id="DJ1SZZ3aCuItbE3y70CO-29" value="" style="endArrow=none;html=1;rounded=0;" edge="1" parent="1" source="DJ1SZZ3aCuItbE3y70CO-1" target="DJ1SZZ3aCuItbE3y70CO-27">
          <mxGeometry relative="1" as="geometry">
            <mxPoint x="350" y="500" as="sourcePoint" />
            <mxPoint x="510" y="500" as="targetPoint" />
          </mxGeometry>
        </mxCell>
        <mxCell id="DJ1SZZ3aCuItbE3y70CO-30" value="" style="endArrow=none;html=1;rounded=0;" edge="1" parent="1" source="DJ1SZZ3aCuItbE3y70CO-27" target="DJ1SZZ3aCuItbE3y70CO-16">
          <mxGeometry relative="1" as="geometry">
            <mxPoint x="250" y="540" as="sourcePoint" />
            <mxPoint x="410" y="540" as="targetPoint" />
          </mxGeometry>
        </mxCell>
        <mxCell id="DJ1SZZ3aCuItbE3y70CO-31" value="1" style="text;strokeColor=none;fillColor=none;spacingLeft=4;spacingRight=4;overflow=hidden;rotatable=0;points=[[0,0.5],[1,0.5]];portConstraint=eastwest;fontSize=12;whiteSpace=wrap;html=1;" vertex="1" parent="1">
          <mxGeometry x="110" y="280" width="40" height="30" as="geometry" />
        </mxCell>
        <mxCell id="DJ1SZZ3aCuItbE3y70CO-32" value="&lt;font style=&quot;font-size: 20px;&quot;&gt;*&lt;/font&gt;" style="text;strokeColor=none;fillColor=none;spacingLeft=4;spacingRight=4;overflow=hidden;rotatable=0;points=[[0,0.5],[1,0.5]];portConstraint=eastwest;fontSize=12;whiteSpace=wrap;html=1;" vertex="1" parent="1">
          <mxGeometry x="110" y="630" width="40" height="30" as="geometry" />
        </mxCell>
        <mxCell id="DJ1SZZ3aCuItbE3y70CO-33" value="Empleado" style="whiteSpace=wrap;html=1;align=center;" vertex="1" parent="1">
          <mxGeometry x="620" y="680" width="100" height="40" as="geometry" />
        </mxCell>
        <mxCell id="DJ1SZZ3aCuItbE3y70CO-34" value="nombre" style="ellipse;whiteSpace=wrap;html=1;align=center;" vertex="1" parent="1">
          <mxGeometry x="460" y="770" width="100" height="40" as="geometry" />
        </mxCell>
        <mxCell id="DJ1SZZ3aCuItbE3y70CO-35" value="" style="endArrow=none;html=1;rounded=0;" edge="1" parent="1" source="DJ1SZZ3aCuItbE3y70CO-34" target="DJ1SZZ3aCuItbE3y70CO-33">
          <mxGeometry relative="1" as="geometry">
            <mxPoint x="460" y="700" as="sourcePoint" />
            <mxPoint x="620" y="700" as="targetPoint" />
          </mxGeometry>
        </mxCell>
        <mxCell id="DJ1SZZ3aCuItbE3y70CO-36" value="contraseña" style="ellipse;whiteSpace=wrap;html=1;align=center;" vertex="1" parent="1">
          <mxGeometry x="490" y="590" width="100" height="40" as="geometry" />
        </mxCell>
        <mxCell id="DJ1SZZ3aCuItbE3y70CO-37" value="foto" style="ellipse;whiteSpace=wrap;html=1;align=center;" vertex="1" parent="1">
          <mxGeometry x="640" y="810" width="100" height="40" as="geometry" />
        </mxCell>
        <mxCell id="DJ1SZZ3aCuItbE3y70CO-38" value="descripcion" style="ellipse;whiteSpace=wrap;html=1;align=center;" vertex="1" parent="1">
          <mxGeometry x="780" y="720" width="100" height="40" as="geometry" />
        </mxCell>
        <mxCell id="DJ1SZZ3aCuItbE3y70CO-39" value="correo" style="ellipse;whiteSpace=wrap;html=1;align=center;fontStyle=4;" vertex="1" parent="1">
          <mxGeometry x="770" y="610" width="100" height="40" as="geometry" />
        </mxCell>
        <mxCell id="DJ1SZZ3aCuItbE3y70CO-40" value="" style="endArrow=none;html=1;rounded=0;" edge="1" parent="1" source="DJ1SZZ3aCuItbE3y70CO-37" target="DJ1SZZ3aCuItbE3y70CO-33">
          <mxGeometry relative="1" as="geometry">
            <mxPoint x="549" y="784" as="sourcePoint" />
            <mxPoint x="644" y="730" as="targetPoint" />
          </mxGeometry>
        </mxCell>
        <mxCell id="DJ1SZZ3aCuItbE3y70CO-41" value="" style="endArrow=none;html=1;rounded=0;" edge="1" parent="1" source="DJ1SZZ3aCuItbE3y70CO-33" target="DJ1SZZ3aCuItbE3y70CO-38">
          <mxGeometry relative="1" as="geometry">
            <mxPoint x="559" y="794" as="sourcePoint" />
            <mxPoint x="654" y="740" as="targetPoint" />
          </mxGeometry>
        </mxCell>
        <mxCell id="DJ1SZZ3aCuItbE3y70CO-42" value="" style="endArrow=none;html=1;rounded=0;" edge="1" parent="1" source="DJ1SZZ3aCuItbE3y70CO-33" target="DJ1SZZ3aCuItbE3y70CO-39">
          <mxGeometry relative="1" as="geometry">
            <mxPoint x="730" y="723" as="sourcePoint" />
            <mxPoint x="798" y="739" as="targetPoint" />
          </mxGeometry>
        </mxCell>
        <mxCell id="DJ1SZZ3aCuItbE3y70CO-43" value="" style="endArrow=none;html=1;rounded=0;" edge="1" parent="1" source="DJ1SZZ3aCuItbE3y70CO-33" target="DJ1SZZ3aCuItbE3y70CO-36">
          <mxGeometry relative="1" as="geometry">
            <mxPoint x="723" y="690" as="sourcePoint" />
            <mxPoint x="797" y="655" as="targetPoint" />
          </mxGeometry>
        </mxCell>
        <mxCell id="DJ1SZZ3aCuItbE3y70CO-44" value="atiende" style="shape=rhombus;perimeter=rhombusPerimeter;whiteSpace=wrap;html=1;align=center;" vertex="1" parent="1">
          <mxGeometry x="294" y="670" width="120" height="60" as="geometry" />
        </mxCell>
        <mxCell id="DJ1SZZ3aCuItbE3y70CO-45" value="" style="endArrow=none;html=1;rounded=0;" edge="1" parent="1" source="DJ1SZZ3aCuItbE3y70CO-16" target="DJ1SZZ3aCuItbE3y70CO-44">
          <mxGeometry relative="1" as="geometry">
            <mxPoint x="320" y="620" as="sourcePoint" />
            <mxPoint x="480" y="620" as="targetPoint" />
          </mxGeometry>
        </mxCell>
        <mxCell id="DJ1SZZ3aCuItbE3y70CO-46" value="" style="endArrow=none;html=1;rounded=0;" edge="1" parent="1" source="DJ1SZZ3aCuItbE3y70CO-44" target="DJ1SZZ3aCuItbE3y70CO-33">
          <mxGeometry relative="1" as="geometry">
            <mxPoint x="350" y="570" as="sourcePoint" />
            <mxPoint x="510" y="570" as="targetPoint" />
          </mxGeometry>
        </mxCell>
        <mxCell id="DJ1SZZ3aCuItbE3y70CO-47" value="1" style="text;strokeColor=none;fillColor=none;spacingLeft=4;spacingRight=4;overflow=hidden;rotatable=0;points=[[0,0.5],[1,0.5]];portConstraint=eastwest;fontSize=12;whiteSpace=wrap;html=1;" vertex="1" parent="1">
          <mxGeometry x="580" y="675" width="40" height="30" as="geometry" />
        </mxCell>
        <mxCell id="DJ1SZZ3aCuItbE3y70CO-48" value="&lt;font style=&quot;font-size: 20px;&quot;&gt;*&lt;/font&gt;" style="text;strokeColor=none;fillColor=none;spacingLeft=4;spacingRight=4;overflow=hidden;rotatable=0;points=[[0,0.5],[1,0.5]];portConstraint=eastwest;fontSize=12;whiteSpace=wrap;html=1;" vertex="1" parent="1">
          <mxGeometry x="160" y="660" width="40" height="30" as="geometry" />
        </mxCell>
        <mxCell id="DJ1SZZ3aCuItbE3y70CO-49" value="Usuario de marketing" style="whiteSpace=wrap;html=1;align=center;" vertex="1" parent="1">
          <mxGeometry x="-390" y="930" width="100" height="40" as="geometry" />
        </mxCell>
        <mxCell id="DJ1SZZ3aCuItbE3y70CO-50" value="nombre" style="ellipse;whiteSpace=wrap;html=1;align=center;" vertex="1" parent="1">
          <mxGeometry x="-520" y="850" width="100" height="40" as="geometry" />
        </mxCell>
        <mxCell id="DJ1SZZ3aCuItbE3y70CO-51" value="contraseña" style="ellipse;whiteSpace=wrap;html=1;align=center;" vertex="1" parent="1">
          <mxGeometry x="-513" y="1020" width="100" height="40" as="geometry" />
        </mxCell>
        <mxCell id="DJ1SZZ3aCuItbE3y70CO-52" value="correo" style="ellipse;whiteSpace=wrap;html=1;align=center;fontStyle=4;" vertex="1" parent="1">
          <mxGeometry x="-250" y="860" width="100" height="40" as="geometry" />
        </mxCell>
        <mxCell id="DJ1SZZ3aCuItbE3y70CO-53" value="" style="endArrow=none;html=1;rounded=0;" edge="1" parent="1" source="DJ1SZZ3aCuItbE3y70CO-51" target="DJ1SZZ3aCuItbE3y70CO-49">
          <mxGeometry relative="1" as="geometry">
            <mxPoint x="-380" y="1050" as="sourcePoint" />
            <mxPoint x="-220" y="1050" as="targetPoint" />
          </mxGeometry>
        </mxCell>
        <mxCell id="DJ1SZZ3aCuItbE3y70CO-54" value="" style="endArrow=none;html=1;rounded=0;" edge="1" parent="1" source="DJ1SZZ3aCuItbE3y70CO-50" target="DJ1SZZ3aCuItbE3y70CO-49">
          <mxGeometry relative="1" as="geometry">
            <mxPoint x="-390" y="840" as="sourcePoint" />
            <mxPoint x="-230" y="840" as="targetPoint" />
          </mxGeometry>
        </mxCell>
        <mxCell id="DJ1SZZ3aCuItbE3y70CO-55" value="" style="endArrow=none;html=1;rounded=0;" edge="1" parent="1" source="DJ1SZZ3aCuItbE3y70CO-49" target="DJ1SZZ3aCuItbE3y70CO-52">
          <mxGeometry relative="1" as="geometry">
            <mxPoint x="-170" y="1020" as="sourcePoint" />
            <mxPoint x="-10" y="1020" as="targetPoint" />
          </mxGeometry>
        </mxCell>
        <mxCell id="DJ1SZZ3aCuItbE3y70CO-56" value="Anuncio" style="whiteSpace=wrap;html=1;align=center;" vertex="1" parent="1">
          <mxGeometry x="150" y="1010" width="100" height="40" as="geometry" />
        </mxCell>
        <mxCell id="DJ1SZZ3aCuItbE3y70CO-57" value="fecha" style="ellipse;whiteSpace=wrap;html=1;align=center;" vertex="1" parent="1">
          <mxGeometry x="-10" y="1010" width="100" height="40" as="geometry" />
        </mxCell>
        <mxCell id="DJ1SZZ3aCuItbE3y70CO-58" value="idAnuncio" style="ellipse;whiteSpace=wrap;html=1;align=center;fontStyle=4;" vertex="1" parent="1">
          <mxGeometry x="40" y="1080" width="100" height="40" as="geometry" />
        </mxCell>
        <mxCell id="DJ1SZZ3aCuItbE3y70CO-59" value="duracion" style="ellipse;whiteSpace=wrap;html=1;align=center;" vertex="1" parent="1">
          <mxGeometry x="60" y="940" width="100" height="40" as="geometry" />
        </mxCell>
        <mxCell id="DJ1SZZ3aCuItbE3y70CO-60" value="tipo" style="ellipse;whiteSpace=wrap;html=1;align=center;" vertex="1" parent="1">
          <mxGeometry x="240" y="940" width="100" height="40" as="geometry" />
        </mxCell>
        <mxCell id="DJ1SZZ3aCuItbE3y70CO-61" value="texto" style="ellipse;whiteSpace=wrap;html=1;align=center;" vertex="1" parent="1">
          <mxGeometry x="330" y="1010" width="100" height="40" as="geometry" />
        </mxCell>
        <mxCell id="DJ1SZZ3aCuItbE3y70CO-62" value="imagen" style="ellipse;whiteSpace=wrap;html=1;align=center;" vertex="1" parent="1">
          <mxGeometry x="280" y="1100" width="100" height="40" as="geometry" />
        </mxCell>
        <mxCell id="DJ1SZZ3aCuItbE3y70CO-63" value="urlVideo" style="ellipse;whiteSpace=wrap;html=1;align=center;" vertex="1" parent="1">
          <mxGeometry x="150" y="1120" width="100" height="40" as="geometry" />
        </mxCell>
        <mxCell id="DJ1SZZ3aCuItbE3y70CO-64" value="" style="endArrow=none;html=1;rounded=0;" edge="1" parent="1" source="DJ1SZZ3aCuItbE3y70CO-57" target="DJ1SZZ3aCuItbE3y70CO-56">
          <mxGeometry relative="1" as="geometry">
            <mxPoint x="-50" y="1050" as="sourcePoint" />
            <mxPoint x="110" y="1050" as="targetPoint" />
          </mxGeometry>
        </mxCell>
        <mxCell id="DJ1SZZ3aCuItbE3y70CO-65" value="" style="endArrow=none;html=1;rounded=0;" edge="1" parent="1" source="DJ1SZZ3aCuItbE3y70CO-58" target="DJ1SZZ3aCuItbE3y70CO-56">
          <mxGeometry relative="1" as="geometry">
            <mxPoint x="100" y="1040" as="sourcePoint" />
            <mxPoint x="160" y="1040" as="targetPoint" />
          </mxGeometry>
        </mxCell>
        <mxCell id="DJ1SZZ3aCuItbE3y70CO-66" value="" style="endArrow=none;html=1;rounded=0;" edge="1" parent="1" source="DJ1SZZ3aCuItbE3y70CO-63" target="DJ1SZZ3aCuItbE3y70CO-56">
          <mxGeometry relative="1" as="geometry">
            <mxPoint x="126" y="1093" as="sourcePoint" />
            <mxPoint x="179" y="1060" as="targetPoint" />
          </mxGeometry>
        </mxCell>
        <mxCell id="DJ1SZZ3aCuItbE3y70CO-67" value="" style="endArrow=none;html=1;rounded=0;" edge="1" parent="1" source="DJ1SZZ3aCuItbE3y70CO-62" target="DJ1SZZ3aCuItbE3y70CO-56">
          <mxGeometry relative="1" as="geometry">
            <mxPoint x="210" y="1130" as="sourcePoint" />
            <mxPoint x="210" y="1060" as="targetPoint" />
          </mxGeometry>
        </mxCell>
        <mxCell id="DJ1SZZ3aCuItbE3y70CO-68" value="" style="endArrow=none;html=1;rounded=0;" edge="1" parent="1" source="DJ1SZZ3aCuItbE3y70CO-61" target="DJ1SZZ3aCuItbE3y70CO-56">
          <mxGeometry relative="1" as="geometry">
            <mxPoint x="315" y="1113" as="sourcePoint" />
            <mxPoint x="239" y="1060" as="targetPoint" />
          </mxGeometry>
        </mxCell>
        <mxCell id="DJ1SZZ3aCuItbE3y70CO-69" value="" style="endArrow=none;html=1;rounded=0;" edge="1" parent="1" source="DJ1SZZ3aCuItbE3y70CO-60" target="DJ1SZZ3aCuItbE3y70CO-56">
          <mxGeometry relative="1" as="geometry">
            <mxPoint x="340" y="1040" as="sourcePoint" />
            <mxPoint x="260" y="1040" as="targetPoint" />
          </mxGeometry>
        </mxCell>
        <mxCell id="DJ1SZZ3aCuItbE3y70CO-70" value="" style="endArrow=none;html=1;rounded=0;" edge="1" parent="1" source="DJ1SZZ3aCuItbE3y70CO-59" target="DJ1SZZ3aCuItbE3y70CO-56">
          <mxGeometry relative="1" as="geometry">
            <mxPoint x="277" y="988" as="sourcePoint" />
            <mxPoint x="236" y="1020" as="targetPoint" />
          </mxGeometry>
        </mxCell>
        <mxCell id="DJ1SZZ3aCuItbE3y70CO-71" value="publica" style="shape=rhombus;perimeter=rhombusPerimeter;whiteSpace=wrap;html=1;align=center;" vertex="1" parent="1">
          <mxGeometry x="-250" y="1070" width="120" height="60" as="geometry" />
        </mxCell>
        <mxCell id="DJ1SZZ3aCuItbE3y70CO-72" value="" style="endArrow=none;html=1;rounded=0;" edge="1" parent="1" source="DJ1SZZ3aCuItbE3y70CO-49" target="DJ1SZZ3aCuItbE3y70CO-71">
          <mxGeometry relative="1" as="geometry">
            <mxPoint x="-360" y="1020" as="sourcePoint" />
            <mxPoint x="-200" y="1020" as="targetPoint" />
          </mxGeometry>
        </mxCell>
        <mxCell id="DJ1SZZ3aCuItbE3y70CO-73" value="" style="endArrow=none;html=1;rounded=0;" edge="1" parent="1" source="DJ1SZZ3aCuItbE3y70CO-71" target="DJ1SZZ3aCuItbE3y70CO-56">
          <mxGeometry relative="1" as="geometry">
            <mxPoint x="-120" y="1140" as="sourcePoint" />
            <mxPoint x="40" y="1140" as="targetPoint" />
          </mxGeometry>
        </mxCell>
        <mxCell id="DJ1SZZ3aCuItbE3y70CO-74" value="1" style="text;strokeColor=none;fillColor=none;spacingLeft=4;spacingRight=4;overflow=hidden;rotatable=0;points=[[0,0.5],[1,0.5]];portConstraint=eastwest;fontSize=12;whiteSpace=wrap;html=1;" vertex="1" parent="1">
          <mxGeometry x="-300" y="970" width="40" height="30" as="geometry" />
        </mxCell>
        <mxCell id="DJ1SZZ3aCuItbE3y70CO-75" value="&lt;font style=&quot;font-size: 20px;&quot;&gt;*&lt;/font&gt;" style="text;strokeColor=none;fillColor=none;spacingLeft=4;spacingRight=4;overflow=hidden;rotatable=0;points=[[0,0.5],[1,0.5]];portConstraint=eastwest;fontSize=12;whiteSpace=wrap;html=1;" vertex="1" parent="1">
          <mxGeometry x="120" y="1010" width="40" height="30" as="geometry" />
        </mxCell>
      </root>
    </mxGraphModel>
  </diagram>
</mxfile>
